<svg version="1.0" xmlns="http://www.w3.org/2000/svg"
 width="400.000000pt" height="266.000000pt" viewBox="0 0 400.000000 266.000000"
 preserveAspectRatio="xMidYMid meet">
<metadata>
Created by potrace 1.15, written by Peter Selinger 2001-2017
</metadata>
<g transform="translate(0.000000,266.000000) scale(0.100000,-0.100000)"
fill="#000000" stroke="none">
<path d="M1360 2254 c-148 -40 -262 -162 -290 -313 -6 -32 -9 -252 -9 -555 1
-275 5 -484 8 -463 3 21 10 37 15 36 5 0 12 4 15 9 3 6 24 13 46 15 22 2 47 7
55 10 8 3 36 8 63 12 l47 6 0 313 c0 172 5 337 10 366 25 132 106 237 228 297
l76 38 376 0 376 0 76 -38 c122 -60 203 -165 228 -297 13 -69 13 -651 0 -720
-22 -117 -102 -232 -200 -288 -25 -14 -47 -27 -49 -29 -2 -1 14 -24 35 -50 21
-26 56 -81 76 -123 l38 -75 -28 -7 c-15 -4 -5 -5 25 -2 152 14 289 122 340
267 17 48 18 101 18 667 0 566 -1 619 -18 667 -38 108 -134 206 -247 250 -41
16 -97 18 -650 20 -510 2 -614 0 -660 -13z"/>
<path d="M1604 1886 c-62 -29 -120 -86 -148 -146 -20 -43 -21 -63 -24 -380
l-3 -335 63 0 c35 0 97 -3 138 -7 66 -7 100 -12 200 -33 18 -4 14 1 -14 16
-55 30 -120 101 -153 167 -25 51 -28 67 -28 162 0 96 3 110 29 163 36 71 108
140 184 175 49 23 70 27 152 27 82 0 103 -4 152 -27 76 -35 148 -104 184 -175
27 -53 29 -67 29 -163 0 -95 -3 -111 -28 -162 -37 -76 -128 -159 -204 -188
-35 -13 -85 -22 -124 -23 l-66 -2 43 -17 c73 -27 185 -87 261 -139 l71 -48 53
15 c40 12 66 30 109 72 90 91 92 101 88 513 -3 326 -4 346 -24 390 -28 60 -85
116 -148 145 -51 24 -54 24 -396 24 -342 0 -345 0 -396 -24z m831 -121 c54
-53 16 -145 -58 -145 -46 0 -87 40 -87 85 0 74 93 112 145 60z"/>
<path d="M1911 1556 c-129 -46 -188 -201 -127 -332 86 -184 362 -175 441 13
22 53 19 148 -6 200 -25 53 -86 106 -138 121 -49 15 -126 14 -170 -2z"/>
</g>
</svg>